<mxfile host="app.diagrams.net" modified="2021-06-28T13:24:14.330Z" agent="5.0 (Macintosh; Intel Mac OS X 10_15_7) AppleWebKit/537.36 (KHTML, like Gecko) Chrome/91.0.4472.106 Safari/537.36" etag="77mdAEQ-WDcSxQOMhdQR" version="14.7.10" type="github">
  <diagram id="a4xQViqfkYwPA81IPDbm" name="Page-1">
    <mxGraphModel dx="1106" dy="638" grid="0" gridSize="10" guides="1" tooltips="1" connect="1" arrows="1" fold="1" page="1" pageScale="1" pageWidth="827" pageHeight="1169" math="0" shadow="0">
      <root>
        <mxCell id="0" />
        <mxCell id="1" parent="0" />
        <mxCell id="rOSADX1GePs_Cb-cXG2q-1" value="" style="rounded=1;whiteSpace=wrap;html=1;fillColor=#d5e8d4;strokeColor=#82b366;" vertex="1" parent="1">
          <mxGeometry x="128.5" y="628" width="580.5" height="98" as="geometry" />
        </mxCell>
        <mxCell id="rOSADX1GePs_Cb-cXG2q-2" value="&lt;font style=&quot;font-size: 36px&quot;&gt;BERT&lt;/font&gt;" style="text;html=1;strokeColor=none;fillColor=none;align=center;verticalAlign=middle;whiteSpace=wrap;rounded=0;" vertex="1" parent="1">
          <mxGeometry x="371" y="650" width="88" height="46" as="geometry" />
        </mxCell>
        <mxCell id="rOSADX1GePs_Cb-cXG2q-5" value="&lt;font style=&quot;font-size: 14px&quot;&gt;[CLS]&lt;/font&gt;" style="shape=loopLimit;whiteSpace=wrap;html=1;fillColor=#e1d5e7;strokeColor=#9673a6;" vertex="1" parent="1">
          <mxGeometry x="137" y="756" width="55" height="48" as="geometry" />
        </mxCell>
        <mxCell id="rOSADX1GePs_Cb-cXG2q-6" value="&lt;font style=&quot;font-size: 14px&quot;&gt;[SEP]&lt;/font&gt;" style="shape=loopLimit;whiteSpace=wrap;html=1;fillColor=#e1d5e7;strokeColor=#9673a6;" vertex="1" parent="1">
          <mxGeometry x="288" y="756" width="55" height="48" as="geometry" />
        </mxCell>
        <mxCell id="rOSADX1GePs_Cb-cXG2q-7" value="&lt;font style=&quot;font-size: 14px&quot;&gt;[SEP]&lt;/font&gt;" style="shape=loopLimit;whiteSpace=wrap;html=1;fillColor=#e1d5e7;strokeColor=#9673a6;" vertex="1" parent="1">
          <mxGeometry x="647" y="757" width="55" height="48" as="geometry" />
        </mxCell>
        <mxCell id="rOSADX1GePs_Cb-cXG2q-8" value="&lt;font style=&quot;font-size: 14px&quot;&gt;[CAND]&lt;/font&gt;" style="shape=loopLimit;whiteSpace=wrap;html=1;fillColor=#fad9d5;strokeColor=#ae4132;fontSize=16;" vertex="1" parent="1">
          <mxGeometry x="212" y="756" width="55" height="48" as="geometry" />
        </mxCell>
        <mxCell id="rOSADX1GePs_Cb-cXG2q-9" value="&lt;font style=&quot;font-size: 14px&quot;&gt;[SEP]&lt;/font&gt;" style="shape=loopLimit;whiteSpace=wrap;html=1;fillColor=#e1d5e7;strokeColor=#9673a6;" vertex="1" parent="1">
          <mxGeometry x="478" y="756" width="55" height="48" as="geometry" />
        </mxCell>
        <mxCell id="rOSADX1GePs_Cb-cXG2q-10" value="&lt;font style=&quot;font-size: 18px&quot;&gt;Context&lt;/font&gt;" style="shape=loopLimit;whiteSpace=wrap;html=1;fillColor=#ffcc99;strokeColor=#36393d;" vertex="1" parent="1">
          <mxGeometry x="361" y="757" width="98" height="46" as="geometry" />
        </mxCell>
        <mxCell id="rOSADX1GePs_Cb-cXG2q-11" value="&lt;span style=&quot;font-size: 18px&quot;&gt;Factor&lt;/span&gt;" style="shape=loopLimit;whiteSpace=wrap;html=1;fillColor=#ffcc99;strokeColor=#36393d;" vertex="1" parent="1">
          <mxGeometry x="550" y="758" width="81" height="46" as="geometry" />
        </mxCell>
        <mxCell id="rOSADX1GePs_Cb-cXG2q-13" value="" style="shape=singleArrow;direction=north;whiteSpace=wrap;html=1;fillColor=#FF99FF;" vertex="1" parent="1">
          <mxGeometry x="157" y="724" width="14" height="31" as="geometry" />
        </mxCell>
        <mxCell id="rOSADX1GePs_Cb-cXG2q-14" value="" style="shape=singleArrow;direction=north;whiteSpace=wrap;html=1;fillColor=#FF99FF;" vertex="1" parent="1">
          <mxGeometry x="232.5" y="726" width="14" height="31" as="geometry" />
        </mxCell>
        <mxCell id="rOSADX1GePs_Cb-cXG2q-15" value="" style="shape=singleArrow;direction=north;whiteSpace=wrap;html=1;fillColor=#FF99FF;" vertex="1" parent="1">
          <mxGeometry x="308.5" y="725" width="14" height="31" as="geometry" />
        </mxCell>
        <mxCell id="rOSADX1GePs_Cb-cXG2q-16" value="" style="shape=singleArrow;direction=north;whiteSpace=wrap;html=1;fillColor=#FF99FF;" vertex="1" parent="1">
          <mxGeometry x="403" y="725" width="14" height="31" as="geometry" />
        </mxCell>
        <mxCell id="rOSADX1GePs_Cb-cXG2q-17" value="" style="shape=singleArrow;direction=north;whiteSpace=wrap;html=1;fillColor=#FF99FF;" vertex="1" parent="1">
          <mxGeometry x="498.5" y="725" width="14" height="31" as="geometry" />
        </mxCell>
        <mxCell id="rOSADX1GePs_Cb-cXG2q-18" value="" style="shape=singleArrow;direction=north;whiteSpace=wrap;html=1;fillColor=#FF99FF;" vertex="1" parent="1">
          <mxGeometry x="583" y="726" width="14" height="31" as="geometry" />
        </mxCell>
        <mxCell id="rOSADX1GePs_Cb-cXG2q-19" value="" style="shape=singleArrow;direction=north;whiteSpace=wrap;html=1;fillColor=#FF99FF;" vertex="1" parent="1">
          <mxGeometry x="667" y="725" width="14" height="31" as="geometry" />
        </mxCell>
        <mxCell id="rOSADX1GePs_Cb-cXG2q-21" value="&lt;font style=&quot;font-size: 14px&quot;&gt;[CAND]&lt;/font&gt;" style="shape=loopLimit;whiteSpace=wrap;html=1;fillColor=#fad9d5;strokeColor=#ae4132;fontSize=16;" vertex="1" parent="1">
          <mxGeometry x="211" y="513" width="55" height="48" as="geometry" />
        </mxCell>
        <mxCell id="rOSADX1GePs_Cb-cXG2q-22" value="" style="shape=singleArrow;direction=north;whiteSpace=wrap;html=1;fillColor=#FF99FF;" vertex="1" parent="1">
          <mxGeometry x="230" y="565" width="14" height="60" as="geometry" />
        </mxCell>
        <mxCell id="rOSADX1GePs_Cb-cXG2q-24" value="" style="endArrow=none;dashed=1;html=1;dashPattern=1 3;strokeWidth=2;" edge="1" parent="1">
          <mxGeometry width="50" height="50" relative="1" as="geometry">
            <mxPoint x="161" y="620" as="sourcePoint" />
            <mxPoint x="211" y="570" as="targetPoint" />
          </mxGeometry>
        </mxCell>
        <mxCell id="rOSADX1GePs_Cb-cXG2q-25" value="" style="endArrow=none;dashed=1;html=1;dashPattern=1 3;strokeWidth=2;" edge="1" parent="1">
          <mxGeometry width="50" height="50" relative="1" as="geometry">
            <mxPoint x="310" y="623" as="sourcePoint" />
            <mxPoint x="266" y="572" as="targetPoint" />
          </mxGeometry>
        </mxCell>
        <mxCell id="rOSADX1GePs_Cb-cXG2q-26" value="" style="endArrow=none;dashed=1;html=1;dashPattern=1 3;strokeWidth=2;" edge="1" parent="1">
          <mxGeometry width="50" height="50" relative="1" as="geometry">
            <mxPoint x="401" y="624" as="sourcePoint" />
            <mxPoint x="274" y="565" as="targetPoint" />
          </mxGeometry>
        </mxCell>
        <mxCell id="rOSADX1GePs_Cb-cXG2q-27" value="" style="endArrow=none;dashed=1;html=1;dashPattern=1 3;strokeWidth=2;" edge="1" parent="1">
          <mxGeometry width="50" height="50" relative="1" as="geometry">
            <mxPoint x="492" y="625" as="sourcePoint" />
            <mxPoint x="285" y="560" as="targetPoint" />
          </mxGeometry>
        </mxCell>
        <mxCell id="rOSADX1GePs_Cb-cXG2q-28" value="" style="endArrow=none;dashed=1;html=1;dashPattern=1 3;strokeWidth=2;" edge="1" parent="1">
          <mxGeometry width="50" height="50" relative="1" as="geometry">
            <mxPoint x="582" y="625" as="sourcePoint" />
            <mxPoint x="274" y="540" as="targetPoint" />
          </mxGeometry>
        </mxCell>
        <mxCell id="rOSADX1GePs_Cb-cXG2q-29" value="&lt;font style=&quot;font-size: 14px&quot;&gt;Self-Attention&lt;/font&gt;" style="text;html=1;align=center;verticalAlign=middle;resizable=0;points=[];autosize=1;strokeColor=#82b366;gradientColor=#97d077;fillColor=#d5e8d4;" vertex="1" parent="1">
          <mxGeometry x="383" y="551" width="94" height="17" as="geometry" />
        </mxCell>
        <mxCell id="rOSADX1GePs_Cb-cXG2q-30" value="&lt;font style=&quot;font-size: 24px&quot;&gt;[0 0 0 0 0 0 1 1 1 1 1 1 1 1 0 0 0 ]&lt;/font&gt;" style="rounded=1;whiteSpace=wrap;html=1;fillColor=#FFE599;" vertex="1" parent="1">
          <mxGeometry x="234" y="888" width="364" height="60" as="geometry" />
        </mxCell>
        <mxCell id="rOSADX1GePs_Cb-cXG2q-32" value="&lt;font style=&quot;font-size: 18px&quot;&gt;Context Token_type_ids&lt;/font&gt;" style="text;html=1;align=center;verticalAlign=middle;resizable=0;points=[];autosize=1;strokeColor=#36393d;fillColor=#FFFF99;rounded=1;shadow=0;glass=0;sketch=0;" vertex="1" parent="1">
          <mxGeometry x="13" y="911" width="202" height="18" as="geometry" />
        </mxCell>
        <mxCell id="rOSADX1GePs_Cb-cXG2q-33" value="&lt;font style=&quot;font-size: 18px&quot;&gt;Original Factor in Context&lt;/font&gt;" style="rounded=1;whiteSpace=wrap;html=1;fillColor=#FFE599;" vertex="1" parent="1">
          <mxGeometry x="369" y="975" width="150" height="60" as="geometry" />
        </mxCell>
        <mxCell id="rOSADX1GePs_Cb-cXG2q-34" value="" style="shape=singleArrow;direction=north;whiteSpace=wrap;html=1;fillColor=#FF99FF;" vertex="1" parent="1">
          <mxGeometry x="364" y="948" width="14" height="31" as="geometry" />
        </mxCell>
        <mxCell id="rOSADX1GePs_Cb-cXG2q-35" value="" style="shape=singleArrow;direction=north;whiteSpace=wrap;html=1;fillColor=#FF99FF;" vertex="1" parent="1">
          <mxGeometry x="509" y="948" width="14" height="31" as="geometry" />
        </mxCell>
        <mxCell id="rOSADX1GePs_Cb-cXG2q-37" value="&lt;font style=&quot;font-size: 18px&quot;&gt;Classifier&lt;/font&gt;" style="rounded=1;whiteSpace=wrap;html=1;fillColor=#e3c800;strokeColor=#B09500;fontColor=#000000;" vertex="1" parent="1">
          <mxGeometry x="162" y="420" width="150" height="60" as="geometry" />
        </mxCell>
        <mxCell id="rOSADX1GePs_Cb-cXG2q-38" value="" style="shape=singleArrow;direction=north;whiteSpace=wrap;html=1;fillColor=#FF99FF;" vertex="1" parent="1">
          <mxGeometry x="231" y="479" width="14" height="33" as="geometry" />
        </mxCell>
        <mxCell id="rOSADX1GePs_Cb-cXG2q-39" value="" style="endArrow=none;dashed=1;html=1;dashPattern=1 3;strokeWidth=2;" edge="1" parent="1">
          <mxGeometry width="50" height="50" relative="1" as="geometry">
            <mxPoint x="238" y="888" as="sourcePoint" />
            <mxPoint x="358" y="806" as="targetPoint" />
          </mxGeometry>
        </mxCell>
        <mxCell id="rOSADX1GePs_Cb-cXG2q-40" value="" style="endArrow=none;dashed=1;html=1;dashPattern=1 3;strokeWidth=2;" edge="1" parent="1">
          <mxGeometry width="50" height="50" relative="1" as="geometry">
            <mxPoint x="588" y="887" as="sourcePoint" />
            <mxPoint x="459" y="805" as="targetPoint" />
          </mxGeometry>
        </mxCell>
        <mxCell id="rOSADX1GePs_Cb-cXG2q-41" value="" style="rounded=1;whiteSpace=wrap;html=1;fillColor=#d5e8d4;strokeColor=#82b366;" vertex="1" parent="1">
          <mxGeometry x="38" y="1436" width="722" height="98" as="geometry" />
        </mxCell>
        <mxCell id="rOSADX1GePs_Cb-cXG2q-42" value="&lt;font style=&quot;font-size: 36px&quot;&gt;BERT&lt;/font&gt;" style="text;html=1;strokeColor=none;fillColor=none;align=center;verticalAlign=middle;whiteSpace=wrap;rounded=0;" vertex="1" parent="1">
          <mxGeometry x="332" y="1462" width="88" height="46" as="geometry" />
        </mxCell>
        <mxCell id="rOSADX1GePs_Cb-cXG2q-43" value="&lt;font style=&quot;font-size: 14px&quot;&gt;[CLS]&lt;/font&gt;" style="shape=loopLimit;whiteSpace=wrap;html=1;fillColor=#e1d5e7;strokeColor=#9673a6;" vertex="1" parent="1">
          <mxGeometry x="55" y="1572" width="55" height="48" as="geometry" />
        </mxCell>
        <mxCell id="rOSADX1GePs_Cb-cXG2q-44" value="&lt;font style=&quot;font-size: 14px&quot;&gt;[SEP]&lt;/font&gt;" style="shape=loopLimit;whiteSpace=wrap;html=1;fillColor=#e1d5e7;strokeColor=#9673a6;" vertex="1" parent="1">
          <mxGeometry x="206" y="1572" width="55" height="48" as="geometry" />
        </mxCell>
        <mxCell id="rOSADX1GePs_Cb-cXG2q-45" value="&lt;font style=&quot;font-size: 14px&quot;&gt;[SEP]&lt;/font&gt;" style="shape=loopLimit;whiteSpace=wrap;html=1;fillColor=#e1d5e7;strokeColor=#9673a6;" vertex="1" parent="1">
          <mxGeometry x="712" y="1571" width="55" height="48" as="geometry" />
        </mxCell>
        <mxCell id="rOSADX1GePs_Cb-cXG2q-46" value="&lt;font style=&quot;font-size: 14px&quot;&gt;Name&lt;/font&gt;" style="shape=loopLimit;whiteSpace=wrap;html=1;fillColor=#fad9d5;strokeColor=#ae4132;fontSize=16;" vertex="1" parent="1">
          <mxGeometry x="130" y="1572" width="55" height="48" as="geometry" />
        </mxCell>
        <mxCell id="rOSADX1GePs_Cb-cXG2q-47" value="&lt;font style=&quot;font-size: 14px&quot;&gt;[SEP]&lt;/font&gt;" style="shape=loopLimit;whiteSpace=wrap;html=1;fillColor=#e1d5e7;strokeColor=#9673a6;" vertex="1" parent="1">
          <mxGeometry x="394" y="1572" width="55" height="48" as="geometry" />
        </mxCell>
        <mxCell id="rOSADX1GePs_Cb-cXG2q-48" value="&lt;font style=&quot;font-size: 18px&quot;&gt;Context&lt;/font&gt;" style="shape=loopLimit;whiteSpace=wrap;html=1;fillColor=#ffcc99;strokeColor=#36393d;" vertex="1" parent="1">
          <mxGeometry x="279" y="1573" width="98" height="46" as="geometry" />
        </mxCell>
        <mxCell id="rOSADX1GePs_Cb-cXG2q-49" value="&lt;span style=&quot;font-size: 18px&quot;&gt;Factor&lt;/span&gt;" style="shape=loopLimit;whiteSpace=wrap;html=1;fillColor=#ffcc99;strokeColor=#36393d;" vertex="1" parent="1">
          <mxGeometry x="618" y="1572" width="81" height="46" as="geometry" />
        </mxCell>
        <mxCell id="rOSADX1GePs_Cb-cXG2q-50" value="" style="shape=singleArrow;direction=north;whiteSpace=wrap;html=1;fillColor=#FF99FF;" vertex="1" parent="1">
          <mxGeometry x="75" y="1540" width="14" height="31" as="geometry" />
        </mxCell>
        <mxCell id="rOSADX1GePs_Cb-cXG2q-51" value="" style="shape=singleArrow;direction=north;whiteSpace=wrap;html=1;fillColor=#FF99FF;" vertex="1" parent="1">
          <mxGeometry x="150.5" y="1542" width="14" height="31" as="geometry" />
        </mxCell>
        <mxCell id="rOSADX1GePs_Cb-cXG2q-52" value="" style="shape=singleArrow;direction=north;whiteSpace=wrap;html=1;fillColor=#FF99FF;" vertex="1" parent="1">
          <mxGeometry x="226.5" y="1541" width="14" height="31" as="geometry" />
        </mxCell>
        <mxCell id="rOSADX1GePs_Cb-cXG2q-53" value="" style="shape=singleArrow;direction=north;whiteSpace=wrap;html=1;fillColor=#FF99FF;" vertex="1" parent="1">
          <mxGeometry x="321" y="1541" width="14" height="31" as="geometry" />
        </mxCell>
        <mxCell id="rOSADX1GePs_Cb-cXG2q-54" value="" style="shape=singleArrow;direction=north;whiteSpace=wrap;html=1;fillColor=#FF99FF;" vertex="1" parent="1">
          <mxGeometry x="413.5" y="1541" width="14" height="31" as="geometry" />
        </mxCell>
        <mxCell id="rOSADX1GePs_Cb-cXG2q-55" value="" style="shape=singleArrow;direction=north;whiteSpace=wrap;html=1;fillColor=#FF99FF;" vertex="1" parent="1">
          <mxGeometry x="651" y="1539" width="14" height="31" as="geometry" />
        </mxCell>
        <mxCell id="rOSADX1GePs_Cb-cXG2q-79" value="" style="edgeStyle=orthogonalEdgeStyle;rounded=0;orthogonalLoop=1;jettySize=auto;html=1;" edge="1" parent="1">
          <mxGeometry relative="1" as="geometry">
            <mxPoint x="738" y="1568" as="sourcePoint" />
            <mxPoint x="741.5" y="1574" as="targetPoint" />
          </mxGeometry>
        </mxCell>
        <mxCell id="rOSADX1GePs_Cb-cXG2q-56" value="" style="shape=singleArrow;direction=north;whiteSpace=wrap;html=1;fillColor=#FF99FF;" vertex="1" parent="1">
          <mxGeometry x="731" y="1539" width="14" height="31" as="geometry" />
        </mxCell>
        <mxCell id="rOSADX1GePs_Cb-cXG2q-57" value="&lt;font style=&quot;font-size: 14px&quot;&gt;[CLS]&lt;/font&gt;" style="shape=loopLimit;whiteSpace=wrap;html=1;fillColor=#fad9d5;strokeColor=#ae4132;fontSize=16;" vertex="1" parent="1">
          <mxGeometry x="56" y="1315" width="55" height="48" as="geometry" />
        </mxCell>
        <mxCell id="rOSADX1GePs_Cb-cXG2q-58" value="" style="shape=singleArrow;direction=north;whiteSpace=wrap;html=1;fillColor=#FF99FF;" vertex="1" parent="1">
          <mxGeometry x="76.5" y="1370" width="14" height="60" as="geometry" />
        </mxCell>
        <mxCell id="rOSADX1GePs_Cb-cXG2q-70" value="&lt;font style=&quot;font-size: 18px&quot;&gt;Classifier&lt;/font&gt;" style="rounded=1;whiteSpace=wrap;html=1;fillColor=#e3c800;strokeColor=#B09500;fontColor=#000000;" vertex="1" parent="1">
          <mxGeometry x="9" y="1205" width="150" height="60" as="geometry" />
        </mxCell>
        <mxCell id="rOSADX1GePs_Cb-cXG2q-71" value="" style="shape=singleArrow;direction=north;whiteSpace=wrap;html=1;fillColor=#FF99FF;" vertex="1" parent="1">
          <mxGeometry x="75" y="1269" width="14" height="44" as="geometry" />
        </mxCell>
        <mxCell id="rOSADX1GePs_Cb-cXG2q-80" value="&lt;span style=&quot;font-size: 18px&quot;&gt;Original&lt;br&gt;Factor&lt;/span&gt;" style="shape=loopLimit;whiteSpace=wrap;html=1;fillColor=#ffcc99;strokeColor=#36393d;" vertex="1" parent="1">
          <mxGeometry x="463" y="1571" width="86" height="49" as="geometry" />
        </mxCell>
        <mxCell id="rOSADX1GePs_Cb-cXG2q-81" value="" style="shape=singleArrow;direction=north;whiteSpace=wrap;html=1;fillColor=#FF99FF;" vertex="1" parent="1">
          <mxGeometry x="498" y="1539" width="14" height="31" as="geometry" />
        </mxCell>
        <mxCell id="rOSADX1GePs_Cb-cXG2q-82" value="&lt;font style=&quot;font-size: 14px&quot;&gt;[SEP]&lt;/font&gt;" style="shape=loopLimit;whiteSpace=wrap;html=1;fillColor=#e1d5e7;strokeColor=#9673a6;" vertex="1" parent="1">
          <mxGeometry x="558" y="1571" width="55" height="48" as="geometry" />
        </mxCell>
        <mxCell id="rOSADX1GePs_Cb-cXG2q-83" value="" style="shape=singleArrow;direction=north;whiteSpace=wrap;html=1;fillColor=#FF99FF;" vertex="1" parent="1">
          <mxGeometry x="579.5" y="1540" width="14" height="31" as="geometry" />
        </mxCell>
      </root>
    </mxGraphModel>
  </diagram>
</mxfile>
